<?xml version="1.0" encoding="UTF-8"?><svg id="Layer_2" xmlns="http://www.w3.org/2000/svg" xmlns:xlink="http://www.w3.org/1999/xlink" viewBox="0 0 1070.87 377.1"><defs><style>.cls-1{fill:url(#linear-gradient);}.cls-2{letter-spacing:.04em;}.cls-3{letter-spacing:0em;}.cls-4{fill:#010101;font-family:ThirstyScriptLight, 'Thirsty Script';font-size:240px;}</style><linearGradient id="linear-gradient" x1="393.01" y1="188.55" x2="677.86" y2="188.55" gradientUnits="userSpaceOnUse"><stop offset="0" stop-color="#478ba2"/><stop offset=".16" stop-color="#727d92"/><stop offset=".51" stop-color="#de5b6d"/><stop offset="1" stop-color="#e9755a"/></linearGradient></defs><g id="Layer_3"><path class="cls-1" d="m662.03,377.1h-253.2c-8.74,0-15.82-7.09-15.82-15.82s7.08-15.82,15.82-15.82h3.75c2.68-35.7,14.59-67.3,36.2-96.21,17.39-23.26,39.26-42.55,61.47-60.69-22.21-18.15-44.07-37.43-61.47-60.69-21.61-28.9-33.52-60.51-36.2-96.21h-3.75c-8.74,0-15.82-7.08-15.82-15.82s7.08-15.82,15.82-15.82h253.2c8.74,0,15.82,7.08,15.82,15.82s-7.08,15.82-15.82,15.82h-3.75c-2.68,35.7-14.59,67.3-36.2,96.21-17.39,23.26-39.26,42.55-61.47,60.69,22.21,18.15,44.07,37.43,61.47,60.69,21.61,28.9,33.52,60.51,36.2,96.21h3.75c8.74,0,15.82,7.08,15.82,15.82s-7.08,15.82-15.82,15.82Zm-217.71-31.65h182.22c-2.52-28.79-12.16-53.66-29.8-77.25-16.62-22.24-38.16-40.62-61.31-59.33-23.15,18.71-44.68,37.1-61.31,59.33-17.64,23.6-27.29,48.46-29.8,77.25Zm0-313.8c2.52,28.79,12.16,53.66,29.8,77.25,16.62,22.24,38.16,40.62,61.31,59.33,23.15-18.71,44.68-37.1,61.31-59.33,17.64-23.6,27.29-48.46,29.8-77.25h-182.22Z"/><text class="cls-4" transform="translate(0 262.07)"><tspan x="0" y="0">Time</tspan><tspan class="cls-2" x="475.92" y="0">S</tspan><tspan class="cls-3" x="638.39" y="0">hare</tspan></text></g></svg>